<?xml version="1.0" encoding="UTF-8"?>
<!-- Generator: visioncortex VTracer 0.6.4 -->
<svg version="1.1" xmlns="http://www.w3.org/2000/svg" width="1024" height="1024">
<path d="M0 0 C2.99 0.9 5.97 1.8 8.96 2.7 C23.43 7.07 37.88 11.46 52.34 15.87 C56.08 17.02 59.82 18.16 63.56 19.29 C112.19 34.02 159.88 51.87 206.61 71.79 C207.62 72.22 208.64 72.65 209.68 73.09 C241.48 86.59 274.34 101.37 303.49 119.98 C306.83 122.23 306.83 122.23 310.69 122.46 C321.45 118.7 328.83 106.6 333.63 96.83 C335.78 92.21 337.71 87.51 339.61 82.79 C340.04 81.74 340.46 80.69 340.9 79.61 C341.82 77.31 342.75 75.01 343.68 72.71 C357.83 37.69 376.15 4.8 412.6 -11.08 C417.52 -13.07 422.53 -14.69 427.61 -16.21 C428.28 -16.42 428.95 -16.63 429.64 -16.85 C448.46 -22.65 471.76 -22.91 490.61 -17.21 C491.29 -17.02 491.98 -16.82 492.68 -16.62 C514.82 -10.31 531.89 1.85 549.85 15.87 C571.5 32.74 590.35 38.07 617.55 40.31 C619.18 40.44 620.81 40.58 622.44 40.72 C625.89 41.01 629.35 41.3 632.8 41.59 C641.93 42.35 651.05 43.14 660.17 43.92 C661.08 44 662 44.08 662.94 44.16 C771.91 53.56 771.91 53.56 784.61 57.79 C784.61 58.45 784.61 59.11 784.61 59.79 C779.96 61.41 775.5 62.17 770.6 62.68 C769.92 62.75 769.24 62.82 768.54 62.9 C766.26 63.14 763.98 63.37 761.7 63.59 C760.03 63.77 758.37 63.94 756.7 64.11 C733.47 66.47 710.21 68.51 686.95 70.58 C681.97 71.03 677 71.47 672.03 71.92 C665.99 72.46 659.94 73.01 653.9 73.55 C652.24 73.7 652.24 73.7 650.54 73.85 C647.34 74.14 644.13 74.42 640.92 74.71 C639.9 74.8 638.88 74.89 637.83 74.98 C632.56 75.45 627.29 75.9 622.01 76.32 C620.93 76.4 619.86 76.49 618.74 76.58 C616.71 76.74 614.67 76.9 612.63 77.05 C584.62 79.28 560.02 91.88 539.61 110.79 C538.67 111.65 537.72 112.51 536.75 113.4 C525.14 124.48 515.39 137.79 507.61 151.79 C506.93 153 506.93 153 506.24 154.23 C494.33 175.67 487.17 196.82 482.05 220.73 C475.68 250.36 469.3 279.71 457.61 307.79 C457.16 308.87 457.16 308.87 456.7 309.98 C448.99 328.2 438.31 345.62 425.61 360.79 C425.14 361.36 424.67 361.93 424.18 362.52 C414.6 374.08 404.49 384.53 392.61 393.79 C391.66 394.53 390.72 395.27 389.74 396.04 C344.66 430.58 287.95 445.86 231.61 446.1 C229.75 446.11 229.75 446.11 227.85 446.12 C217.64 446.03 217.64 446.03 214.61 443.79 C214.94 442.8 215.27 441.81 215.61 440.79 C218.75 439.74 221.64 439.5 224.92 439.25 C263.07 436.25 299.88 425.89 333.61 407.79 C334.21 407.47 334.81 407.15 335.42 406.83 C353.71 397 369.55 383.98 384.61 369.79 C385.78 368.7 385.78 368.7 386.98 367.58 C401.92 353.23 415 334.57 423.61 315.79 C424.57 313.98 425.53 312.16 426.49 310.35 C439.23 284.77 445.67 256.48 451.26 228.64 C460.31 183.83 476.85 140.74 509.61 107.79 C510.35 107.05 510.35 107.05 511.1 106.29 C519.49 97.94 528.62 91.1 538.61 84.79 C539.23 84.4 539.84 84 540.48 83.6 C553.58 75.39 568.32 69.26 583.08 64.72 C584.33 64.26 584.33 64.26 585.61 63.79 C583.12 62.54 581.37 62.63 578.58 62.58 C577.52 62.56 576.47 62.54 575.39 62.52 C574.24 62.51 573.09 62.49 571.9 62.47 C570.12 62.44 570.12 62.44 568.3 62.41 C565.76 62.37 563.22 62.33 560.69 62.29 C556.88 62.23 553.07 62.16 549.27 62.1 C544.36 62.01 539.45 61.94 534.55 61.89 C530.1 61.83 525.66 61.74 521.22 61.6 C519.31 61.56 517.41 61.52 515.5 61.47 C514.64 61.44 513.78 61.4 512.89 61.36 C510.25 61.26 510.25 61.26 506.61 61.79 C504.14 64.23 503.4 65.87 502.43 69.18 C500.8 74.39 496.12 76.86 491.67 79.6 C483.41 82.81 476.76 81.51 468.61 78.79 C466.64 80.71 464.96 82.6 463.24 84.73 C462.71 85.36 462.18 85.99 461.64 86.64 C459.95 88.68 458.28 90.73 456.61 92.79 C455.54 94.1 454.46 95.41 453.39 96.72 C450.67 100.05 447.96 103.4 445.26 106.75 C443.61 108.79 441.95 110.83 440.29 112.87 C435.15 119.17 430.04 125.49 425.05 131.91 C420.8 137.38 416.35 142.65 411.82 147.89 C408.52 151.7 405.37 155.58 402.31 159.59 C400.31 162.17 398.25 164.7 396.17 167.23 C395.42 168.14 394.67 169.06 393.9 170 C392.36 171.87 390.83 173.74 389.29 175.61 C388.21 176.93 388.21 176.93 387.11 178.29 C386.14 179.48 386.14 179.48 385.14 180.7 C383.44 182.8 383.44 182.8 382.61 185.79 C383.74 188.06 384.91 190.14 386.24 192.29 C386.99 193.56 387.73 194.83 388.48 196.11 C389.03 197.05 389.03 197.05 389.59 198.01 C401.22 218.3 403.62 242.19 397.81 264.63 C393.28 280.85 385.82 293.46 374.61 305.79 C373.85 306.64 373.09 307.5 372.31 308.38 C337.37 345.61 284.72 354.28 236.85 362.54 C200.14 367.98 200.14 367.98 171.61 389.79 C169.49 393.29 167.7 396.91 165.92 400.6 C165.42 401.63 164.91 402.66 164.39 403.72 C159.93 412.88 155.81 422.21 151.88 431.62 C147.72 441.33 141.82 451.05 132.61 456.79 C129.96 457.35 129.96 457.35 127.36 457.66 C126.12 458.04 124.89 458.41 123.61 458.79 C124.11 462.15 125.95 464.87 127.61 467.79 C131.56 480.95 125.63 494.47 120.46 506.4 C119.29 509.08 118.15 511.77 117.01 514.46 C116.42 515.84 115.83 517.22 115.24 518.61 C112.21 525.7 109.27 532.83 106.36 539.98 C105.66 541.68 105.66 541.68 104.95 543.41 C104.31 544.98 104.31 544.98 103.66 546.58 C103.29 547.5 102.91 548.41 102.53 549.35 C100.21 555.51 99.25 562.54 101.29 568.92 C103.03 572.26 104.76 573.89 107.92 575.91 C109.25 576.84 109.25 576.84 110.61 577.79 C110.67 580.23 110.67 580.23 109.61 582.79 C109.3 583.8 108.99 584.81 108.67 585.85 C107.99 586.49 107.31 587.13 106.61 587.79 C98.9 586.7 92.7 581.34 87.61 575.79 C81.97 568.07 81.84 560.07 82.61 550.79 C85.51 537.15 92.52 524.12 98.04 511.41 C100.5 505.74 102.91 500.05 105.3 494.35 C105.72 493.36 106.14 492.36 106.58 491.34 C106.96 490.42 107.35 489.49 107.75 488.54 C108.09 487.74 108.42 486.94 108.77 486.12 C110.99 479.99 111.95 472.73 109.82 466.47 C108.47 463.67 107.23 461.38 104.97 459.22 C104.52 458.74 104.07 458.27 103.61 457.79 C103.82 453.85 104.95 450.69 107.61 447.79 C109.72 447.47 109.72 447.47 112.24 447.35 C118.18 447.02 122.36 444.95 126.61 440.79 C130.4 435.46 133.08 429.81 135.54 423.79 C136.06 422.52 136.06 422.52 136.6 421.24 C138.08 417.69 139.55 414.13 141.02 410.57 C158.86 367.45 158.86 367.45 181.61 357.79 C202.42 349.53 225.84 346.32 247.72 341.97 C270.85 337.36 293.34 332.34 314.61 321.79 C315.64 321.29 316.68 320.78 317.74 320.27 C340.16 308.72 357.84 289.87 366 265.91 C372.08 245.98 369.16 225.55 359.67 207.31 C337.99 167.13 290.54 144.1 251.61 123.79 C250.67 123.3 249.72 122.8 248.75 122.29 C179.86 86.59 106.23 60.06 33.38 33.79 C30.65 32.8 27.91 31.81 25.17 30.82 C-44.02 5.73 -115.44 -19.67 -188.39 -31.21 C-189.56 -31.41 -190.74 -31.61 -191.95 -31.82 C-196.5 -32.34 -201 -32.39 -205.58 -32.4 C-206.47 -32.41 -207.35 -32.42 -208.27 -32.43 C-209.13 -32.44 -209.99 -32.44 -210.87 -32.44 C-211.64 -32.44 -212.41 -32.45 -213.21 -32.45 C-215.69 -32.18 -217.28 -31.53 -219.39 -30.21 C-221.84 -25.31 -220.5 -19.86 -218.89 -14.9 C-212.92 0.24 -199.89 11.96 -187.39 21.79 C-185.72 23.21 -184.06 24.62 -182.39 26.04 C-175.17 31.95 -167.4 37.07 -159.66 42.26 C-157.71 43.58 -155.77 44.92 -153.85 46.28 C-82.8 96.09 2.96 116.6 87.6 127.49 C90.15 127.82 92.7 128.15 95.25 128.49 C97.5 128.78 99.76 129.06 102.01 129.33 C103.29 129.5 104.56 129.67 105.88 129.84 C107.52 130.04 107.52 130.04 109.2 130.25 C109.99 130.43 110.79 130.61 111.61 130.79 C111.94 131.45 112.27 132.11 112.61 132.79 C109.96 133.39 109.96 133.39 106.11 133.85 C104.27 134.09 104.27 134.09 102.39 134.32 C77.3 136.95 51.66 136.74 26.61 133.79 C25.58 133.67 24.55 133.55 23.48 133.43 C-30.06 127.06 -88.45 107.75 -133.39 77.79 C-122.67 101.54 -100.55 118.01 -78.18 129.84 C-76.64 130.66 -75.11 131.51 -73.59 132.36 C-53.65 143.13 -30.35 149.14 -8.37 154.19 C-6.97 154.52 -6.97 154.52 -5.53 154.86 C-3.77 155.26 -2 155.65 -0.23 156.02 C2.12 156.55 2.12 156.55 5.61 157.79 C5.61 159.11 5.61 160.43 5.61 161.79 C-13.51 170.51 -45.23 162.91 -64.21 156.78 C-67.15 155.69 -67.15 155.69 -69.39 155.79 C-34.63 181.93 9.17 192.22 52.11 186.6 C75.96 183.21 99.35 177.56 122.41 170.65 C123.64 170.29 124.86 169.92 126.13 169.54 C127.23 169.21 128.33 168.87 129.47 168.53 C132.64 167.78 135.36 167.47 138.61 167.79 C134.96 173.07 128.86 175.68 123.3 178.54 C122.28 179.06 121.27 179.59 120.22 180.12 C83.07 198.81 40.1 207.85 -1.41 203 C-3.76 202.78 -6.03 202.64 -8.39 202.79 C17.87 222.12 58.81 223.84 89.51 219.19 C92.22 218.75 94.91 218.27 97.61 217.79 C98.48 217.64 99.35 217.49 100.25 217.33 C116.49 214.46 132.32 209.97 148.17 205.45 C149.02 205.21 149.87 204.97 150.74 204.72 C152.35 204.27 153.96 203.81 155.56 203.34 C162.77 201.31 162.77 201.31 166.61 201.79 C166.09 204.92 164.22 206.1 161.8 208.02 C160.6 208.83 159.39 209.63 158.17 210.41 C157.51 210.85 156.84 211.28 156.16 211.72 C131.21 227.65 100.41 240.73 70.38 240.86 C66.15 240.88 61.94 240.93 57.72 241.16 C56.84 241.2 55.96 241.25 55.06 241.29 C54.58 241.46 54.1 241.62 53.61 241.79 C55.71 244.27 58.15 245.61 61.1 246.88 C61.84 247.19 62.58 247.51 63.34 247.84 C64.09 248.16 64.84 248.47 65.61 248.79 C66.31 249.08 67 249.37 67.72 249.67 C100.08 262.93 132.71 257.85 164.38 244.67 C178.69 238.39 192.77 231.55 206.31 223.74 C211.43 220.79 211.43 220.79 213.61 220.79 C213.34 224.7 211.06 226.84 208.49 229.6 C207.37 230.82 207.37 230.82 206.23 232.06 C205.36 232.96 204.5 233.86 203.61 234.79 C203.09 235.34 202.58 235.89 202.04 236.45 C197.76 240.88 193.19 244.59 188.17 248.16 C187.39 248.73 186.6 249.29 185.79 249.86 C169.55 261.27 148.05 273.79 127.61 273.79 C127.61 274.45 127.61 275.11 127.61 275.79 C129.58 276.53 131.59 277.18 133.61 277.79 C135.88 278.62 138.15 279.45 140.42 280.29 C164.3 288.74 189.86 286.93 212.73 276.04 C216.07 274.37 219.35 272.6 222.61 270.79 C223.25 270.44 223.9 270.09 224.56 269.73 C234.21 264.41 242.41 258.12 250.61 250.79 C251.9 249.71 253.19 248.62 254.49 247.54 C263.28 239.79 271.79 231.29 279.31 222.31 C280.68 220.7 282.04 219.19 283.61 217.79 C284.27 217.79 284.93 217.79 285.61 217.79 C284.69 232.48 272.75 248.91 263.61 259.79 C262.53 261.08 262.53 261.08 261.44 262.39 C242.25 284.43 215.98 299.71 186.61 302.79 C160.14 304.07 134.73 299.83 113.54 282.81 C106.85 277.5 101.4 275.73 92.94 274.76 C70.6 272.18 51.38 260.45 35.61 244.79 C34.89 243.78 34.17 242.76 33.42 241.72 C30.13 237.7 25.83 236.88 20.99 235.54 C-0.07 229.09 -16.46 217.8 -32.39 202.79 C-33.35 201.89 -33.35 201.89 -34.34 200.97 C-35.74 199.62 -37.07 198.21 -38.39 196.79 C-38.39 196.13 -38.39 195.47 -38.39 194.79 C-40.06 193.81 -40.06 193.81 -42.39 192.79 C-64.77 181.07 -86.67 165.19 -99.39 142.79 C-99.39 142.13 -99.39 141.47 -99.39 140.79 C-100.71 140.1 -102.05 139.44 -103.39 138.79 C-128.1 121.56 -144.56 98.46 -153.16 69.5 C-154.72 66.06 -156.27 64.94 -159.39 62.79 C-160.07 62.31 -160.75 61.84 -161.46 61.35 C-163.06 60.23 -164.67 59.12 -166.28 58.02 C-175.44 51.73 -184.09 45.18 -192.39 37.79 C-193.89 36.48 -195.39 35.16 -196.89 33.85 C-197.5 33.31 -198.12 32.77 -198.75 32.21 C-200.18 30.97 -201.66 29.78 -203.14 28.6 C-205.4 26.78 -207.45 24.95 -209.39 22.79 C-209.39 22.13 -209.39 21.47 -209.39 20.79 C-210.05 20.79 -210.71 20.79 -211.39 20.79 C-223.93 9 -238.81 -10.58 -239.89 -28.27 C-239.69 -33.6 -238.05 -37.34 -234.39 -41.21 C-202.66 -65.83 -38.58 -11.67 0 0 Z M399.61 27.79 C398.89 28.36 398.17 28.92 397.43 29.5 C378.53 44.87 368.26 69.69 357.31 90.8 C349.65 105.49 340.44 120.24 325.99 129.1 C325.2 129.66 324.42 130.22 323.61 130.79 C325.01 134.99 328.06 136.53 331.55 138.98 C332.93 139.97 334.32 140.97 335.7 141.96 C336.37 142.45 337.05 142.93 337.74 143.43 C366.23 164.13 366.23 164.13 373.07 175.13 C373.58 175.68 374.09 176.23 374.61 176.79 C378.36 175.9 380.25 173.08 382.55 170.16 C383.33 169.18 384.11 168.2 384.92 167.19 C385.34 166.65 385.77 166.11 386.21 165.55 C388.28 162.95 390.38 160.38 392.48 157.81 C396.55 152.82 400.6 147.82 404.61 142.79 C409.67 136.45 414.79 130.17 419.91 123.88 C421.56 121.86 423.2 119.83 424.85 117.8 C431.65 109.41 438.5 101.06 445.37 92.72 C449.46 87.76 453.55 82.78 457.61 77.79 C458.36 76.91 459.11 76.04 459.89 75.13 C460.46 74.36 461.03 73.59 461.61 72.79 C461.1 70.38 461.1 70.38 459.61 67.79 C456.42 59.7 455.59 53.24 458.65 44.93 C461.72 38.12 467.04 34.74 473.61 31.79 C480.6 29.69 486.63 30.52 493.22 33.4 C497.29 35.76 500.11 38.83 502.61 42.79 C502.79 43.5 502.96 44.22 503.14 44.96 C503.93 47.77 504.7 49.56 506.61 51.79 C511.29 53.25 516.02 53.12 520.88 53.11 C522.31 53.13 523.75 53.17 525.18 53.2 C528.97 53.29 532.76 53.32 536.55 53.33 C540.35 53.36 544.14 53.44 547.94 53.52 C554.84 53.65 561.74 53.74 568.64 53.77 C571.5 53.78 574.36 53.82 577.23 53.87 C578.73 53.89 580.23 53.9 581.73 53.92 C582.45 53.94 583.16 53.95 583.91 53.97 C586 54.02 586 54.02 588.61 53.79 C586.25 51.43 584.28 51.11 581.11 50.35 C562.96 45.96 547.41 36.83 531.67 27.1 C489.91 1.31 439.37 -7.48 399.61 27.79 Z " fill="#AB6A33" transform="translate(239.38873291015625,234.2103271484375)"/>
<path d="M0 0 C-0.18 3.64 -1.18 6.84 -3 10 C-5.89 10.12 -7.32 9.79 -10 9 C-16.77 8.22 -22.26 9.27 -28 13 C-33.58 17.52 -36.76 23.14 -39.7 29.59 C-40.22 30.7 -40.22 30.7 -40.74 31.83 C-44.47 39.92 -48.01 48.09 -51.55 56.27 C-57.25 69.38 -62.99 82.49 -69.06 95.44 C-69.54 96.48 -70.01 97.53 -70.5 98.6 C-75.61 109.33 -83.02 118.05 -94 123 C-95.81 123.41 -97.62 123.81 -99.44 124.19 C-100.61 124.79 -101.79 125.38 -103 126 C-102.3 128.91 -100.93 131.23 -99.51 133.85 C-94.41 144.51 -97.52 156.8 -101.19 167.44 C-105.5 178.94 -110.22 190.25 -115 201.56 C-129.3 230.04 -129.3 230.04 -130.2 260.65 C-127.87 264.82 -125.36 266.45 -121.06 268.44 C-118.7 269.58 -118.7 269.58 -117 271 C-116.7 275.04 -118.22 278.44 -120 282 C-129.18 282 -137.75 275.96 -144.28 269.93 C-152.03 261.24 -152.83 251.62 -152.26 240.47 C-151.86 236.62 -150.75 233.17 -149.46 229.55 C-149.19 228.78 -148.93 228.01 -148.65 227.21 C-145.89 219.39 -142.64 211.78 -139.28 204.2 C-137.86 201 -136.46 197.78 -135.06 194.57 C-134.02 192.19 -132.97 189.8 -131.93 187.42 C-118.2 160.67 -118.2 160.67 -117.93 132.19 C-119.1 129.8 -120.44 128.31 -122.31 126.44 C-125.01 123.59 -125.01 123.59 -124.98 120.89 C-124.46 118.84 -123.81 116.96 -123 115 C-122.5 113.51 -122.5 113.51 -122 112 C-119.27 111.59 -119.27 111.59 -115.81 111.5 C-108.54 111.06 -104.53 109.76 -99.31 104.62 C-88.53 91.83 -82.56 74.99 -76.06 59.76 C-72.32 51 -68.47 42.29 -64.47 33.65 C-63.87 32.36 -63.28 31.07 -62.69 29.78 C-55.54 14.17 -48.07 1.42 -31.69 -5.38 C-20.56 -7.26 -9.59 -6.39 0 0 Z " fill="#6F4627" transform="translate(436,552)"/>
<path d="M0 0 C1.62 1.8 1.62 1.8 2 4 C0.04 5.86 0.04 5.86 -2.94 7.75 C-20.57 19.89 -27.59 41.6 -31.43 61.94 C-33.2 71.99 -34.13 81.89 -34.43 92.07 C-34.5 94.21 -34.58 96.34 -34.65 98.48 C-34.77 101.79 -34.87 105.11 -34.97 108.43 C-36.12 145.85 -36.12 145.85 -44.71 154.77 C-49.54 159.1 -53.3 160.36 -59.77 160.29 C-63.14 159.85 -64.78 158.49 -67 156 C-67.92 153.95 -67.92 153.95 -68 152 C-66.05 151.09 -66.05 151.09 -63.31 150.5 C-59.14 149.41 -56.53 148.69 -54 145 C-50.24 136.09 -50.83 126.48 -51 117 C-50.96 115.33 -50.96 115.33 -50.91 113.63 C-50.81 110.56 -50.81 110.56 -52 107 C-55.45 107.8 -58.15 109.98 -61 112 C-64.19 113.94 -64.19 113.94 -66 114 C-65.42 106.97 -62.91 99.99 -60.8 93.3 C-60.49 92.3 -60.18 91.3 -59.86 90.27 C-59.2 88.16 -58.54 86.05 -57.88 83.95 C-56.89 80.8 -55.91 77.66 -54.94 74.51 C-51.74 64.28 -48.42 54.11 -44.78 44.02 C-44.3 42.71 -44.3 42.71 -43.82 41.37 C-38.26 26.19 -30.62 10.09 -16 1.75 C-10.98 -0.4 -5.36 -1.35 0 0 Z " fill="#774B2A" transform="translate(439,643)"/>
<path d="M0 0 C4.44 -0.28 8.32 0.68 12.31 2.56 C16.54 6.39 18.55 9.92 19.38 15.6 C19.72 24.12 18.06 32.36 16.42 40.69 C14.3 50.94 14.3 50.94 16.31 60.94 C18.01 63.22 18.01 63.22 21 65 C21.43 67.41 21.43 67.41 21 70 C19.32 71.84 19.32 71.84 17.12 73.5 C12.77 76.81 11.41 79.68 10.45 85.07 C10.32 86.2 10.18 87.32 10.04 88.48 C9.87 89.73 9.71 90.97 9.55 92.26 C9.23 94.86 8.91 97.46 8.59 100.06 C5.99 120.2 5.99 120.2 0 127 C-5.23 130.72 -9.68 131.54 -16 131 C-16.99 130.67 -17.98 130.34 -19 130 C-19.25 126.69 -19.25 126.69 -18 123 C-15.78 121.76 -13.67 121.01 -11.23 120.31 C-7.97 118.39 -7.16 115.45 -6 112 C-5.51 109.5 -5.11 106.98 -4.79 104.45 C-4.59 103.01 -4.4 101.58 -4.2 100.14 C-3.91 97.92 -3.63 95.69 -3.35 93.47 C-0.79 73.26 -0.79 73.26 5.77 67.43 C6.17 66.96 6.58 66.49 7 66 C5.28 62.92 5.28 62.92 3 60 C0.31 51.93 2.48 43.07 4 34.94 C6.64 22.45 6.64 22.45 5 10 C2.59 8.75 2.59 8.75 0 8 C-0.66 7.67 -1.32 7.34 -2 7 C-1.67 4.4 -1.17 2.35 0 0 Z " fill="#815433" transform="translate(422,668)"/>
</svg>
